ply
format ascii 1.0
comment Created by Blender 3.3.1 - www.blender.org
element vertex 24
property float x
property float y
property float z
element face 36
property list uchar uint vertex_indices
end_header
0.640000 2.932338 -2.602242
0.640000 -0.207662 -2.102242
0.640000 -0.207662 -2.602242
0.640000 2.932338 -2.102242
-0.640000 -0.207662 -2.102242
-0.640000 2.932338 -2.102242
-0.640000 -0.207662 -2.602242
-0.640000 2.932338 -2.602242
0.640000 0.200000 -2.600000
0.640000 -0.200000 2.600000
0.640000 -0.200000 -2.600000
0.640000 0.200000 2.600000
-0.640000 -0.200000 2.600000
-0.640000 0.200000 2.600000
-0.640000 -0.200000 -2.600000
-0.640000 0.200000 -2.600000
0.640000 2.932338 2.103236
0.640000 -0.207662 2.603236
0.640000 -0.207662 2.103236
0.640000 2.932338 2.603236
-0.640000 -0.207662 2.603236
-0.640000 2.932338 2.603236
-0.640000 -0.207662 2.103236
-0.640000 2.932338 2.103236
3 0 1 2
3 3 4 1
3 5 6 4
3 7 2 6
3 4 2 1
3 3 7 5
3 0 3 1
3 3 5 4
3 5 7 6
3 7 0 2
3 4 6 2
3 3 0 7
3 8 9 10
3 11 12 9
3 13 14 12
3 15 10 14
3 12 10 9
3 11 15 13
3 8 11 9
3 11 13 12
3 13 15 14
3 15 8 10
3 12 14 10
3 11 8 15
3 16 17 18
3 19 20 17
3 21 22 20
3 23 18 22
3 20 18 17
3 19 23 21
3 16 19 17
3 19 21 20
3 21 23 22
3 23 16 18
3 20 22 18
3 19 16 23
