ply
format ascii 1.0
comment Created by Blender 3.3.1 - www.blender.org
element vertex 36
property float x
property float y
property float z
element face 22
property list uchar uint vertex_indices
end_header
0.030454 0.083994 -0.130754
-0.033170 0.083994 -0.130754
-0.033170 0.220258 -0.130754
0.030454 0.220258 -0.130754
-0.033170 0.220258 -0.096521
0.030454 0.220258 -0.096521
0.030454 0.220258 0.130753
-0.033170 0.220258 0.130753
-0.033170 0.083994 0.130754
0.030454 0.083994 0.130754
0.030454 0.063351 -0.096521
-0.033170 0.063351 -0.096521
-0.033170 0.063351 -0.130754
0.030454 0.063351 -0.130754
-0.033170 0.083994 -0.096521
0.030454 0.083994 -0.096521
0.030454 0.063351 0.091220
-0.033170 0.063351 0.091220
0.030454 0.220258 0.091220
-0.033170 0.220258 0.091220
0.030454 0.083994 0.130754
0.030454 0.083994 0.091220
0.030454 0.220258 0.130753
0.030454 0.063351 0.130754
-0.033170 0.063351 0.130754
-0.033170 0.083994 0.091220
-0.033170 0.083994 0.130754
-0.033170 0.220258 0.130753
0.030454 0.063351 0.130754
0.030454 0.063351 0.091220
0.030454 0.063351 -0.096521
0.030454 0.063351 -0.130754
-0.033170 0.063351 -0.130754
-0.033170 0.063351 -0.096521
-0.033170 0.063351 0.091220
-0.033170 0.063351 0.130754
4 0 1 2 3
4 3 2 4 5
4 6 7 8 9
4 10 11 12 13
4 1 14 4 2
4 15 0 3 5
4 16 17 11 10
4 18 19 7 6
4 20 21 18 22
4 23 24 17 16
4 19 25 26 27
4 9 8 24 23
4 28 29 21 20
4 29 30 15 21
4 0 15 30 31
4 1 0 31 32
4 32 33 14 1
4 25 14 33 34
4 26 25 34 35
4 15 5 4 14
4 21 15 14 25
4 18 21 25 19
